<svg width="41" height="42" viewBox="0 0 41 42" fill="none" xmlns="http://www.w3.org/2000/svg">
<path d="M35.115 29.275C34.0762 29.2775 33.1175 29.6213 32.3462 30.1988L32.3587 30.19L28.235 26.4425C29.26 25.0712 29.8762 23.3438 29.8762 21.4713C29.8762 19.4538 29.1612 17.6038 27.97 16.16L27.9812 16.1737L32.5362 11.62C33.2662 12.1088 34.1637 12.4 35.1287 12.4C37.725 12.4 39.8288 10.2962 39.8288 7.7C39.8288 5.10375 37.725 3 35.1287 3C32.5325 3 30.4287 5.10375 30.4287 7.7C30.4287 8.66625 30.72 9.56375 31.22 10.31L31.2087 10.2925L26.655 14.8462C25.2237 13.6662 23.3713 12.95 21.35 12.95C20.1788 12.95 19.065 13.19 18.0525 13.625L18.1075 13.6038L16.8175 11.2613C17.8063 10.4013 18.4275 9.1425 18.4275 7.7375C18.4275 5.1625 16.34 3.07625 13.7662 3.07625C11.1925 3.07625 9.105 5.16375 9.105 7.7375C9.105 10.3125 11.1925 12.3987 13.7662 12.3987C13.775 12.3987 13.785 12.3987 13.7938 12.3987C14.2913 12.3912 14.765 12.3075 15.2087 12.1562L15.1763 12.1662L16.4725 14.52C14.2763 16.0737 12.86 18.6012 12.855 21.4612V21.4625C12.8675 22.3338 13.0113 23.1675 13.2675 23.95L13.2513 23.8913L11.4725 24.645C10.6213 23.4312 9.22875 22.6488 7.6525 22.6488C5.0825 22.6488 3 24.7313 3 27.3013C3 29.8713 5.0825 31.9538 7.6525 31.9538C10.2225 31.9538 12.305 29.8713 12.305 27.3013C12.305 26.9713 12.2712 26.65 12.2063 26.34L12.2113 26.37L13.985 25.6175C15.4438 28.2337 18.1938 29.9738 21.35 29.9738C23.5125 29.9738 25.485 29.1562 26.975 27.8137L26.9675 27.82L31.1038 31.5788C30.685 32.2588 30.435 33.08 30.43 33.9613C30.43 36.55 32.5287 38.65 35.1175 38.65C37.7062 38.65 39.805 36.5513 39.805 33.9625C39.805 31.3738 37.7062 29.275 35.1175 29.275H35.115ZM10.9775 7.7125C10.9775 6.15875 12.2362 4.9 13.79 4.9C15.3438 4.9 16.6025 6.15875 16.6025 7.7125C16.6025 9.26625 15.3438 10.525 13.79 10.525C12.2375 10.5225 10.98 9.265 10.9775 7.7125ZM7.615 30.1125C6.0625 30.1113 4.805 28.8538 4.805 27.3013C4.805 25.7488 6.06375 24.49 7.61625 24.49C9.16875 24.49 10.4262 25.7475 10.4275 27.3C10.425 28.8525 9.1675 30.11 7.615 30.1125ZM35.115 4.9C36.6687 4.9 37.9275 6.15875 37.9275 7.7125C37.9275 9.26625 36.6687 10.525 35.115 10.525C33.5612 10.525 32.3025 9.26625 32.3025 7.7125C32.305 6.16 33.5625 4.9025 35.115 4.9ZM14.7275 21.4625V21.4612C14.7275 17.7962 17.6988 14.825 21.3638 14.825C25.0288 14.825 28 17.7962 28 21.4612C28 25.1262 25.0288 28.0975 21.3638 28.0975C17.7 28.0938 14.7325 25.125 14.7275 21.4625ZM35.115 36.775C33.5612 36.775 32.3025 35.5163 32.3025 33.9625C32.3025 32.4088 33.5612 31.15 35.115 31.15C36.6687 31.15 37.9275 32.4088 37.9275 33.9625C37.925 35.515 36.6675 36.7725 35.115 36.775Z" fill="#389B5C"/>
</svg>
