<svg width="843" height="258" viewBox="0 0 843 258" fill="none" xmlns="http://www.w3.org/2000/svg">
<path d="M492.157 169.096V131.212C492.157 126.976 491.148 123.69 489.129 121.355C487.149 118.98 484.398 117.792 480.875 117.792C478.619 117.792 476.659 118.326 474.997 119.395C473.334 120.424 472.028 121.889 471.077 123.789C470.167 125.65 469.712 127.807 469.712 130.262L462.942 125.749C462.942 121.355 463.972 117.475 466.03 114.11C468.128 110.746 470.919 108.133 474.403 106.272C477.926 104.372 481.825 103.422 486.1 103.422C493.424 103.422 498.946 105.599 502.667 109.954C506.428 114.269 508.308 119.93 508.308 126.936V169.096H492.157ZM414.845 169.096V104.966H429.096V126.224H431.115V169.096H414.845ZM453.561 169.096V131.212C453.561 126.976 452.551 123.69 450.532 121.355C448.553 118.98 445.802 117.792 442.278 117.792C438.914 117.792 436.202 118.96 434.144 121.295C432.125 123.591 431.115 126.58 431.115 130.262L424.346 125.511C424.346 121.315 425.395 117.554 427.493 114.229C429.591 110.904 432.402 108.272 435.925 106.332C439.488 104.392 443.466 103.422 447.86 103.422C452.888 103.422 457.005 104.491 460.211 106.629C463.457 108.766 465.852 111.617 467.396 115.179C468.94 118.742 469.712 122.661 469.712 126.936V169.096H453.561Z" fill="#F6F6F6"/>
<path d="M544.02 169.253C537.449 169.253 531.65 167.848 526.622 165.037C521.634 162.187 517.715 158.288 514.865 153.339C512.054 148.352 510.649 142.651 510.649 136.238C510.649 129.231 512.035 123.135 514.806 117.949C517.577 112.764 521.397 108.746 526.266 105.895C531.135 103.006 536.736 101.561 543.07 101.561C549.8 101.561 555.52 103.144 560.231 106.311C564.942 109.478 568.425 113.931 570.682 119.671C572.938 125.411 573.73 132.161 573.057 139.92H557.084V133.982C557.084 127.45 556.035 122.759 553.937 119.909C551.878 117.019 548.493 115.574 543.783 115.574C538.28 115.574 534.223 117.257 531.61 120.621C529.037 123.947 527.75 128.875 527.75 135.407C527.75 141.384 529.037 146.016 531.61 149.302C534.223 152.548 538.043 154.171 543.07 154.171C546.237 154.171 548.949 153.478 551.205 152.092C553.462 150.707 555.184 148.708 556.371 146.095L572.522 150.727C570.108 156.586 566.288 161.138 561.062 164.384C555.876 167.63 550.196 169.253 544.02 169.253ZM522.762 139.92V127.925H565.278V139.92H522.762Z" fill="#F6F6F6"/>
<path d="M619.709 169.077V138.793C619.709 137.328 619.629 135.468 619.471 133.212C619.313 130.916 618.818 128.62 617.987 126.324C617.155 124.028 615.79 122.108 613.889 120.564C612.029 119.02 609.377 118.248 605.933 118.248C604.547 118.248 603.063 118.466 601.479 118.901C599.896 119.337 598.411 120.188 597.026 121.454C595.64 122.682 594.492 124.503 593.582 126.917C592.711 129.332 592.275 132.539 592.275 136.537L583.012 132.143C583.012 127.076 584.041 122.325 586.1 117.892C588.158 113.458 591.246 109.875 595.363 107.144C599.52 104.413 604.745 103.047 611.039 103.047C616.067 103.047 620.164 103.898 623.331 105.6C626.498 107.302 628.952 109.46 630.694 112.072C632.475 114.685 633.742 117.417 634.494 120.267C635.246 123.077 635.701 125.651 635.86 127.986C636.018 130.322 636.097 132.024 636.097 133.093V169.077H619.709ZM575.887 169.077V104.947H590.256V126.205H592.275V169.077H575.887Z" fill="#F6F6F6"/>
<path d="M682.121 168.046C677.688 168.878 673.333 169.234 669.058 169.115C664.822 169.036 661.022 168.304 657.657 166.918C654.332 165.493 651.798 163.217 650.057 160.09C648.473 157.16 647.642 154.191 647.563 151.183C647.483 148.134 647.444 144.69 647.444 140.851V85.7793H663.595V139.901C663.595 142.394 663.615 144.651 663.654 146.67C663.734 148.649 664.149 150.233 664.901 151.42C666.326 153.677 668.603 154.904 671.73 155.102C674.857 155.3 678.321 155.141 682.121 154.627V168.046ZM638.838 116.386V103.917H682.121V116.386H638.838Z" fill="#F6F6F6"/>
<path d="M713.112 169.253C705.037 169.253 698.505 167.432 693.517 163.79C688.569 160.109 685.56 154.923 684.491 148.233L700.999 145.739C701.672 148.747 703.156 151.103 705.452 152.805C707.788 154.507 710.737 155.358 714.3 155.358C717.229 155.358 719.486 154.804 721.069 153.696C722.653 152.548 723.444 150.964 723.444 148.945C723.444 147.679 723.128 146.669 722.494 145.917C721.861 145.125 720.436 144.353 718.219 143.601C716.042 142.849 712.637 141.859 708.006 140.632C702.78 139.286 698.604 137.782 695.477 136.119C692.349 134.457 690.093 132.477 688.707 130.181C687.322 127.846 686.629 125.035 686.629 121.75C686.629 117.633 687.678 114.07 689.776 111.061C691.874 108.013 694.823 105.678 698.624 104.055C702.464 102.392 706.976 101.561 712.162 101.561C717.19 101.561 721.643 102.333 725.523 103.876C729.402 105.42 732.529 107.617 734.904 110.468C737.319 113.318 738.804 116.683 739.358 120.562L722.85 123.531C722.573 121.156 721.544 119.275 719.763 117.89C717.981 116.504 715.567 115.693 712.518 115.455C709.549 115.257 707.155 115.653 705.334 116.643C703.552 117.633 702.661 119.058 702.661 120.918C702.661 122.027 703.038 122.957 703.79 123.709C704.581 124.461 706.185 125.233 708.599 126.025C711.054 126.817 714.775 127.846 719.763 129.113C724.632 130.379 728.531 131.864 731.46 133.566C734.429 135.229 736.587 137.248 737.933 139.623C739.279 141.958 739.952 144.789 739.952 148.114C739.952 154.685 737.577 159.851 732.826 163.612C728.076 167.373 721.505 169.253 713.112 169.253Z" fill="#F6F6F6"/>
<path d="M742.549 169.115V152.964H758.7V169.115H742.549Z" fill="#F6F6F6"/>
<mask id="path-2-inside-1_30_785" fill="white">
<path d="M285.619 37.7129C335.444 37.7132 375.835 78.104 375.835 127.929C375.835 177.753 335.444 218.144 285.619 218.145C272.558 218.145 260.145 215.369 248.938 210.375C237.09 205.095 223.043 205.095 211.195 210.375C199.988 215.368 187.576 218.145 174.516 218.145C124.691 218.144 84.3 177.753 84.2998 127.929C84.2998 78.1039 124.691 37.713 174.516 37.7129C187.576 37.7129 199.988 40.4884 211.195 45.4816C223.043 50.7606 237.09 50.7606 248.938 45.4816C260.145 40.4883 272.558 37.7129 285.619 37.7129Z"/>
</mask>
<path d="M285.619 37.7129L285.619 -11.6665H285.619V37.7129ZM375.835 127.929L425.214 127.929V127.929H375.835ZM285.619 218.145L285.619 267.524L285.619 267.524L285.619 218.145ZM174.516 218.145L174.516 267.524H174.516V218.145ZM84.2998 127.929L34.9204 127.929L34.9204 127.929L84.2998 127.929ZM174.516 37.7129L174.516 -11.6665L174.516 -11.6665L174.516 37.7129ZM248.938 45.4816L269.035 90.5865L248.938 45.4816ZM248.938 210.375L228.839 255.479L248.938 210.375ZM211.195 210.375L191.096 165.271L211.195 210.375ZM285.619 37.7129L285.619 87.0923C308.173 87.0924 326.456 105.376 326.456 127.929H375.835H425.214C425.214 50.8322 362.715 -11.6661 285.619 -11.6665L285.619 37.7129ZM375.835 127.929L326.456 127.929C326.455 150.482 308.172 168.765 285.619 168.765L285.619 218.145L285.619 267.524C362.715 267.524 425.214 205.025 425.214 127.929L375.835 127.929ZM285.619 218.145V168.765C279.617 168.765 274.041 167.501 269.037 165.271L248.938 210.375L228.839 255.479C246.249 263.236 265.499 267.524 285.619 267.524V218.145ZM211.195 210.375L191.096 165.271C186.091 167.501 180.517 168.765 174.516 168.765V218.145V267.524C194.636 267.524 213.886 263.236 231.294 255.478L211.195 210.375ZM174.516 218.145L174.516 168.765C151.963 168.765 133.679 150.482 133.679 127.929L84.2998 127.929L34.9204 127.929C34.9207 205.025 97.4193 267.524 174.516 267.524L174.516 218.145ZM84.2998 127.929H133.679C133.679 105.375 151.962 87.0923 174.516 87.0923L174.516 37.7129L174.516 -11.6665C97.4194 -11.6664 34.9204 50.8323 34.9204 127.929H84.2998ZM174.516 37.7129V87.0923C180.518 87.0923 186.093 88.3565 191.098 90.5863L211.195 45.4816L231.292 0.376891C213.883 -7.37979 194.634 -11.6665 174.516 -11.6665V37.7129ZM248.938 45.4816L269.035 90.5865C274.039 88.3567 279.616 87.0923 285.619 87.0923V37.7129V-11.6665C265.501 -11.6665 246.251 -7.38016 228.841 0.376718L248.938 45.4816ZM211.195 45.4816L191.098 90.5863C215.738 101.565 244.395 101.565 269.035 90.5865L248.938 45.4816L228.841 0.376718C229.5 0.0833056 229.903 0.0614281 230.066 0.0614279C230.229 0.0614278 230.633 0.0833099 231.292 0.376891L211.195 45.4816ZM248.938 210.375L269.037 165.271C244.396 154.291 215.737 154.29 191.096 165.271L211.195 210.375L231.294 255.478C230.634 255.772 230.23 255.794 230.066 255.794C229.903 255.794 229.499 255.772 228.839 255.479L248.938 210.375Z" fill="#F6F6F6" mask="url(#path-2-inside-1_30_785)"/>
</svg>
